<?xml version="1.0" encoding="UTF-8" standalone="no"?>
<svg
   xmlns:dc="http://purl.org/dc/elements/1.1/"
   xmlns:cc="http://creativecommons.org/ns#"
   xmlns:rdf="http://www.w3.org/1999/02/22-rdf-syntax-ns#"
   xmlns:svg="http://www.w3.org/2000/svg"
   xmlns="http://www.w3.org/2000/svg"
   version="1.1"
   x="0px"
   y="0px"
   width="50"
   height="50"
   viewBox="0 0 50 50"
   enable-background="new 0 0 1080 1080"
   xml:space="preserve"
    ><path
     id="path3408"
     style="fill:#8f8d8d;fill-opacity:0.5;stroke:none"
     d="m 25,42 -7.6,0 c -2.1,0 -3.7,-1.6 -3.7,-3.7 0,-2.1 1.6,-3.7 3.7,-3.7 l 4.6,0 0,-1.3 c 0,-0.4 -0.2,-0.6 -0.6,-0.6 l -7.1,0 1.6,-2.8 5.5,0 c 2.1,0 3.5,1.3 3.5,3.4 l 0,8.7 z M 6,32.8 2,32.8 2,30 13.7,30 12,32.8 9,32.8 9,42 6,42 Z m 23.9,0 c -0.3,0 -0.6,0.2 -0.6,0.6 l 0,5.3 c 0,0.3 0.3,0.5 0.6,0.5 l 6.1,0 0,2.8 -6.1,0 c -2.1,0 -3.5,-1.3 -3.5,-3.3 l 0,-5.3 c 0,-2.1 1.4,-3.4 3.5,-3.4 l 6.8,0 -1.6,2.8 -5.2,0 z m -13.2,5.4 c 0,0.6 0.4,1.1 1.1,1.1 l 4.3,0 0,-2.1 -4.3,0 c -0.6,0 -1.1,0.4 -1.1,1 z m 24.2,-5.4 c -0.3,0 -0.6,0.2 -0.6,0.6 l 0,5.3 c 0,0.3 0.3,0.5 0.6,0.5 l 6.1,0 0,2.8 -6.1,0 c -2.1,0 -3.5,-1.3 -3.5,-3.3 l 0,-5.3 c 0,-2.1 1.4,-3.4 3.5,-3.4 l 6.8,0 -1.6,2.8 -5.2,0 z M 0,0 0,50 50,50 50,0 0,0 Z"
      />
      </svg>
